<svg xmlns="http://www.w3.org/2000/svg" width="35.969" height="40" viewBox="0 0 35.969 40">
  <g id="Group_34" data-name="Group 34" transform="translate(4133.754 -4243.807)">
    <path id="Path_40" data-name="Path 40" d="M-4115.77,4264.682a10.449,10.449,0,0,1-10.436-10.438,10.448,10.448,0,0,1,10.436-10.437,10.449,10.449,0,0,1,10.437,10.437A10.45,10.45,0,0,1-4115.77,4264.682Zm0-19.072a8.644,8.644,0,0,0-8.635,8.634,8.645,8.645,0,0,0,8.635,8.634,8.646,8.646,0,0,0,8.636-8.634A8.645,8.645,0,0,0-4115.77,4245.61Z" fill="#8f8f8f"/>
    <path id="Path_41" data-name="Path 41" d="M-4133.754,4283.807v-6.178a11.531,11.531,0,0,1,11.516-11.52h.58a8.459,8.459,0,0,0,5.888,2.385,8.6,8.6,0,0,0,5.712-2.156l.192-.145.2-.074.372-.011a11.53,11.53,0,0,1,11.5,11.521v6.178Zm11.266-15.892a9.781,9.781,0,0,0-9.466,9.714V4282h32.369v-4.373a9.781,9.781,0,0,0-9.467-9.714,10.872,10.872,0,0,1-6.718,2.38,10.447,10.447,0,0,1-6.582-2.333l-.059-.048Z" fill="#8f8f8f"/>
  </g>
</svg>
