<svg xmlns="http://www.w3.org/2000/svg" width="33.323" height="42.05" viewBox="0 0 33.323 42.05">
  <path id="Path_63" data-name="Path 63" d="M-2304.373,3521.51a5.355,5.355,0,0,1-3.9-2.038,5.379,5.379,0,0,1-1.13-3.968l.022-.207-.991-.1c-.923-.092-1.744-.173-2.561-.283a17.53,17.53,0,0,1-5.018-1.311,5.07,5.07,0,0,1-2.212-1.765,2.677,2.677,0,0,1,.345-3.63l.509-.486c.218-.2.437-.41.647-.625a10.588,10.588,0,0,0,2.636-5.639,33.95,33.95,0,0,0,.526-6.4,11.868,11.868,0,0,1,1.107-5.027,10.453,10.453,0,0,1,6.59-5.637l.176-.056.051-.208a3.548,3.548,0,0,1,1.593-4.08,3.724,3.724,0,0,1,1.955-.583,3.626,3.626,0,0,1,2.115.713,3.576,3.576,0,0,1,1.378,3.948l-.036.18.4.134a10.261,10.261,0,0,1,7.361,8.659,24.377,24.377,0,0,1,.232,3.249c.014.567.029,1.133.065,1.7a21.049,21.049,0,0,0,1,5.57,9.141,9.141,0,0,0,2.619,4.021c.153.136.3.276.45.42a2.785,2.785,0,0,1,.128,4.246,7.36,7.36,0,0,1-3.495,1.914,32.2,32.2,0,0,1-6.721,1.044l-.212.016.022.211a5.282,5.282,0,0,1-1.715,4.617,5.137,5.137,0,0,1-3.609,1.412Zm-2.864-6.054c-.036.041-.1.12-.052.515a3.957,3.957,0,0,0,.029.936,3.171,3.171,0,0,0,3.206,2.535,3.636,3.636,0,0,0,.786-.085,3.268,3.268,0,0,0,2.47-3.723l-.029-.145-.145-.02a9.39,9.39,0,0,0-1.383-.079l-4.806-.012Zm2.971-33.857a1.49,1.49,0,0,0-.931.421,1.573,1.573,0,0,0-.423,1.144,1.47,1.47,0,0,0,1.568,1.559,1.562,1.562,0,0,0,1.143-.432,1.568,1.568,0,0,0,.423-1.143,1.454,1.454,0,0,0-1.362-1.549v-.178l-.415,0Z" transform="translate(2320.714 -3479.469)" fill="#ff2ba6"/>
</svg>
