<svg xmlns="http://www.w3.org/2000/svg" width="37.157" height="35.569" viewBox="0 0 37.157 35.569">
  <path id="Path_64" data-name="Path 64" d="M-2203,3484.869a4.306,4.306,0,0,0-3.107-1.295h-28.372a4.293,4.293,0,0,0-3.089,1.295,4.363,4.363,0,0,0-1.295,3.089v19.225a4.373,4.373,0,0,0,1.295,3.107,4.349,4.349,0,0,0,3.089,1.277h.811v6.662a.862.862,0,0,0,.173.535.908.908,0,0,0,.742.379.862.862,0,0,0,.535-.172l10.337-7.4h15.774a4.362,4.362,0,0,0,3.107-1.277,4.377,4.377,0,0,0,1.294-3.107v-19.225A4.367,4.367,0,0,0-2203,3484.869Zm-26.146,14.289a1.922,1.922,0,0,1-1.916-1.915,1.908,1.908,0,0,1,1.916-1.9,1.893,1.893,0,0,1,1.9,1.9A1.907,1.907,0,0,1-2229.151,3499.158Zm8.853,0a1.907,1.907,0,0,1-1.9-1.915,1.893,1.893,0,0,1,1.9-1.9,1.908,1.908,0,0,1,1.916,1.9A1.923,1.923,0,0,1-2220.3,3499.158Zm8.871,0a1.908,1.908,0,0,1-1.9-1.915,1.894,1.894,0,0,1,1.9-1.9,1.907,1.907,0,0,1,1.915,1.9A1.922,1.922,0,0,1-2211.427,3499.158Z" transform="translate(2238.868 -3483.574)" fill="#107897"/>
</svg>
