<svg xmlns="http://www.w3.org/2000/svg" width="28.146" height="26.943" viewBox="0 0 28.146 26.943">
  <path id="Path_59" data-name="Path 59" d="M-3668.214,3674.466a3.257,3.257,0,0,0-2.353-.981h-21.492a3.251,3.251,0,0,0-2.34.981,3.307,3.307,0,0,0-.98,2.34v14.563a3.316,3.316,0,0,0,.98,2.353,3.3,3.3,0,0,0,2.34.967h.615v5.046a.653.653,0,0,0,.131.406.685.685,0,0,0,.562.287.659.659,0,0,0,.405-.13l7.83-5.609h11.949a3.3,3.3,0,0,0,2.353-.967,3.312,3.312,0,0,0,.981-2.353v-14.563A3.3,3.3,0,0,0-3668.214,3674.466Zm-19.8,10.824a1.456,1.456,0,0,1-1.451-1.451,1.444,1.444,0,0,1,1.451-1.438,1.434,1.434,0,0,1,1.438,1.438A1.445,1.445,0,0,1-3688.019,3685.29Zm6.706,0a1.445,1.445,0,0,1-1.438-1.451,1.434,1.434,0,0,1,1.438-1.438,1.444,1.444,0,0,1,1.451,1.438A1.456,1.456,0,0,1-3681.313,3685.29Zm6.72,0a1.445,1.445,0,0,1-1.438-1.451,1.433,1.433,0,0,1,1.438-1.438,1.445,1.445,0,0,1,1.451,1.438A1.457,1.457,0,0,1-3674.593,3685.29Z" transform="translate(3695.379 -3673.485)" fill="#107897"/>
</svg>
