<svg xmlns="http://www.w3.org/2000/svg" xmlns:xlink="http://www.w3.org/1999/xlink" width="47.452" height="45.765" viewBox="0 0 47.452 45.765">
  <defs>
    <filter id="Path_58" x="0" y="0" width="47.452" height="45.765" filterUnits="userSpaceOnUse">
      <feOffset dx="1" dy="1" input="SourceAlpha"/>
      <feGaussianBlur stdDeviation="1" result="blur"/>
      <feFlood flood-color="#595959" flood-opacity="0.102"/>
      <feComposite operator="in" in2="blur"/>
      <feComposite in="SourceGraphic"/>
    </filter>
  </defs>
  <g transform="matrix(1, 0, 0, 1, 0, 0)" filter="url(#Path_58)">
    <path id="Path_58-2" data-name="Path 58" d="M-4126.417,4140.293a.994.994,0,0,1-1.094-1.024q-.363-3.528-.746-7.052l-.345-3.232c-.16-1.511-.32-3.021-.5-4.529a.635.635,0,0,0-.286-.4,5.344,5.344,0,0,1-2.708-2.631c-.133-.293-.281-.35-.491-.35-.238.016-.368.021-.5.021-.176,0-.352-.008-.527-.016a2.871,2.871,0,0,1-2.852-2.8c-.041-1.257-.041-2.546,0-3.94a2.866,2.866,0,0,1,2.357-2.737,5.746,5.746,0,0,1,1.081-.092l.2,0c.269,0,.368-.049.454-.314a5.234,5.234,0,0,1,5.262-3.811q.586-.006,1.173,0l2.566.006c.6,0,1.209,0,1.813-.014a41.648,41.648,0,0,0,12.777-2.28c.911-.313,1.819-.7,2.7-1.067.464-.2.928-.392,1.4-.579a.58.58,0,0,0,.428-.586,2.536,2.536,0,0,1,2.83-2.345l.2,0a2.478,2.478,0,0,1,2.518,2.552c.01,2.288.013,4.577,0,6.865a.475.475,0,0,0,.346.539,5.273,5.273,0,0,1,3.327,5.057,5.261,5.261,0,0,1-3.31,5.068.516.516,0,0,0-.366.587c.016,2.3.012,4.611.008,6.916v.448a2.481,2.481,0,0,1-2.774,2.666,2.889,2.889,0,0,1-2.116-.747,2.581,2.581,0,0,1-.675-1.9.705.705,0,0,0-.523-.8,40.842,40.842,0,0,0-15.84-3.346c-.214,0-.428,0-.643.006l-.415.017v3.83c0,1.2-.311,1.618-1.438,1.958-.252.076-.243.16-.213.439.283,2.782.557,5.512.821,8.243a1.32,1.32,0,0,1-.2,1.059,1.309,1.309,0,0,1-1.027.3l-1.641,0c-.326,0-.651,0-.977.008Zm2.277-1.608v-.041a2.78,2.78,0,0,0,0-.357l-.772-7.564a1.663,1.663,0,0,1,1.332-1.989.591.591,0,0,0,.3-.253c.025-1.071.023-2.147.02-3.237v-.774h-4.244l1.5,14.215Zm22.576-36.6a1.152,1.152,0,0,0-.855.281,1.52,1.52,0,0,0-.324,1.1c.026,3.9.021,7.79.017,11.686v13.321c0,.552.067.911.4,1a3.5,3.5,0,0,0,.857.106,3.132,3.132,0,0,0,.791-.1c.376-.1.405-.514.4-1.049q-.009-4.8,0-9.6l-.005-15.655c0-.421-.123-.944-.7-1.038A3.5,3.5,0,0,0-4101.564,4102.088Zm-17.9,20.766a44.748,44.748,0,0,1,15.143,3.421v-21.256c-.088.031-.174.067-.259.1a43.323,43.323,0,0,1-14.407,3.682c-.421.036-.495.115-.493.532q.024,4.977.016,9.955Zm-7.418-13.89a6.449,6.449,0,0,0-.666.031,3.647,3.647,0,0,0-3.483,3.7c-.054,2.191-.052,4.41.007,6.6a3.624,3.624,0,0,0,3.758,3.578l5.732,0c.133,0,.266-.007.409-.015l.063,0v-13.887h-5.82Z" transform="translate(4138.5 -4098.53)" fill="#8f8f8f"/>
  </g>
</svg>
