<svg xmlns="http://www.w3.org/2000/svg" width="32.362" height="40" viewBox="0 0 32.362 40">
  <g id="Group_302" data-name="Group 302" transform="translate(-2891.483 -6116.144)">
    <path id="Path_690" data-name="Path 690" d="M2896.728,6116.144H2918.6a1.223,1.223,0,0,0,.154.038,5.73,5.73,0,0,1,5.073,5.454c.024.925.01,1.85.01,2.775q0,10.562,0,21.121a1.373,1.373,0,0,1-.454,1.064q-4.865,4.611-9.716,9.237a1.106,1.106,0,0,1-.794.311q-7.908,0-15.815,0a5.2,5.2,0,0,1-1.6-.273,5.816,5.816,0,0,1-3.982-5.579q.029-14.142.009-28.283a5.3,5.3,0,0,1,.05-.854,5.638,5.638,0,0,1,4.075-4.769A10.4,10.4,0,0,1,2896.728,6116.144Zm24.934,25.96v-.176q0-10.019-.006-20.038a3.742,3.742,0,0,0-.143-1,3.538,3.538,0,0,0-3.5-2.565h-11.631q-4.551,0-9.1,0a3.541,3.541,0,0,0-3.614,3.577q0,14.244,0,28.487a3.614,3.614,0,0,0,.063.688,3.536,3.536,0,0,0,3.549,2.889q6.223.006,12.448,0c.066,0,.132-.006.22-.01v-.253c0-2.421-.011-4.843.007-7.264a4.2,4.2,0,0,1,1.2-2.952,4.364,4.364,0,0,1,3.268-1.378c2.326-.008,4.652,0,6.979,0Zm-9.524,11.841a.488.488,0,0,0,.49-.117c1.038-1,2.086-1.99,3.13-2.983l5.734-5.453c.062-.06.158-.128.162-.2.018-.3.008-.6.008-.908-.054-.006-.08-.012-.107-.012q-3.579,0-7.158,0a2.23,2.23,0,0,0-1.34.421,2.3,2.3,0,0,0-.929,1.984q0,3.53,0,7.057C2912.128,6153.805,2912.135,6153.871,2912.138,6153.945Z" fill="#8f8f8f"/>
    <path id="Path_691" data-name="Path 691" d="M2899.26,6132.629a1.089,1.089,0,0,1-.249-2.16,2.057,2.057,0,0,1,.285-.017h19.261a1.1,1.1,0,0,1,1.142.743,1.092,1.092,0,0,1-1.014,1.433C2918.447,6132.635,2902.484,6132.63,2899.26,6132.629Z" fill="#8f8f8f"/>
    <path id="Path_692" data-name="Path 692" d="M2899.26,6127.283a1.089,1.089,0,0,1-.249-2.161,1.906,1.906,0,0,1,.264-.016h19.3a1.09,1.09,0,1,1,.108,2.176c-.218.006-.435,0-.653,0Z" fill="#8f8f8f"/>
    <path id="Path_693" data-name="Path 693" d="M2903.485,6143.321c-1.415,0-2.829,0-4.244,0a1.089,1.089,0,0,1-.252-2.158,1.526,1.526,0,0,1,.263-.024q4.233,0,8.467,0a1.092,1.092,0,1,1,.009,2.182c-1.1.006-2.2,0-3.3,0Z" fill="#8f8f8f"/>
    <path id="Path_694" data-name="Path 694" d="M2903.494,6135.8q2.112,0,4.223,0a1.089,1.089,0,1,1,.054,2.176c-.408.006-.816,0-1.224,0q-3.653,0-7.3,0a1.088,1.088,0,1,1-.033-2.175c.6-.006,1.211,0,1.816,0Z" fill="#8f8f8f"/>
  </g>
</svg>
