<svg xmlns="http://www.w3.org/2000/svg" width="40.364" height="40" viewBox="0 0 40.364 40">
  <g id="Group_33" data-name="Group 33" transform="translate(4135.952 -3498.343)">
    <path id="Path_35" data-name="Path 35" d="M-4097.493,3514.95q-3.207-.009-6.414,0c-.739,0-.99.255-.99,1q0,10.637,0,21.272c0,.773.251,1.018,1.024,1.019q3.182,0,6.363,0c.8,0,1.024-.232,1.025-1.057q0-5.292,0-10.584v-10.635C-4096.482,3515.173-4096.695,3514.951-4097.493,3514.95Zm-.343,11.323v10.6h-5.706c0-6.674,0-13.584,0-20.555l2.564,0c1.081,0,2.136,0,3.144,0Q-4097.834,3521.3-4097.836,3526.273Z" fill="#8f8f8f"/>
    <path id="Path_36" data-name="Path 36" d="M-4117.237,3520.3c0-.687-.244-.94-.921-.942q-3.285-.007-6.57,0c-.663,0-.924.268-.924.952q0,8.538,0,17.075c0,.7.271.955.981.956q3.209.006,6.417,0c.779,0,1.015-.24,1.015-1.017q0-4.256,0-8.511T-4117.237,3520.3Zm-1.353,11.481v5.192h-5.707c0-5.146,0-10.471,0-16.249h2.476c1.077,0,2.163,0,3.233,0q0,3.214,0,6.429Z" fill="#8f8f8f"/>
    <path id="Path_37" data-name="Path 37" d="M-4106.889,3523.832c0-.683-.269-.943-.935-.943q-3.232,0-6.465,0c-.791,0-1.013.219-1.013,1q0,3.346,0,6.693,0,3.4,0,6.8c0,.69.249.952.919.954q3.285.009,6.569,0c.642,0,.923-.277.924-.911Q-4106.882,3530.63-4106.889,3523.832Zm-1.354,13.138c-.929,0-1.887,0-2.855,0-.92,0-1.878,0-2.851,0,0-1.527,0-3.071,0-4.569v-3.786q0-2.178,0-4.357,1.827,0,3.656,0h2.051C-4108.238,3528.573-4108.239,3532.845-4108.243,3536.97Z" fill="#8f8f8f"/>
    <path id="Path_38" data-name="Path 38" d="M-4127.539,3526.951c0-.709-.256-.948-.976-.95q-3.261,0-6.519,0c-.674,0-.914.249-.915.943q0,2.62,0,5.241c0,1.748,0,3.494,0,5.242,0,.648.262.911.907.912q3.285.009,6.57,0c.665,0,.931-.274.932-.956Q-4127.533,3532.167-4127.539,3526.951Zm-1.353,10.02c-.946,0-1.921,0-2.906,0-.9,0-1.844,0-2.8,0,0-1.09,0-2.191,0-3.26q0-.764,0-1.527v-1.416q0-1.7,0-3.4h2.705l3,0C-4128.888,3530.583-4128.888,3533.81-4128.892,3536.971Z" fill="#8f8f8f"/>
    <path id="Path_39" data-name="Path 39" d="M-4097.382,3498.711a3.32,3.32,0,0,0-1.457-.368,3.031,3.031,0,0,0-1.933.756,3.019,3.019,0,0,0-1.093,3.273,1.542,1.542,0,0,1-.457,1.554q-1.358,1.326-2.711,2.656c-1.452,1.425-2.954,2.9-4.439,4.34a1.44,1.44,0,0,1-.531.32,3.394,3.394,0,0,0-1.821-.528,3.407,3.407,0,0,0-1.646.423,1.71,1.71,0,0,1-.506-.409c-1.556-1.8-2.941-3.377-4.236-4.83a1.9,1.9,0,0,1-.433-.753,3.484,3.484,0,0,0,.393-1.614,3.488,3.488,0,0,0-1.126-2.573h0a3.2,3.2,0,0,0-.459-.4,3.117,3.117,0,0,0-1.825-.579,3.136,3.136,0,0,0-1.84.586l-.089.067a3.482,3.482,0,0,0-1.539,2.9,3.5,3.5,0,0,0,.4,1.626,1.9,1.9,0,0,1-.413.654l-.3.324c-1.256,1.363-2.554,2.772-3.79,4.187a2.417,2.417,0,0,1-1.779,1.01,6.163,6.163,0,0,0-.973-.134,3.383,3.383,0,0,0-2.327,1.177,3.265,3.265,0,0,0-.708,2.5,3.229,3.229,0,0,0,3.158,2.8,2.911,2.911,0,0,0,.617-.065,3.227,3.227,0,0,0,2.141-1.509,3.266,3.266,0,0,0,.3-2.6,1.541,1.541,0,0,1,.363-1.575c1.658-1.807,3.153-3.456,4.571-5.04a1.778,1.778,0,0,1,.427-.356,3.4,3.4,0,0,0,1.751.484,3.392,3.392,0,0,0,1.722-.467,1.725,1.725,0,0,1,.437.369c1.373,1.59,2.793,3.21,4.342,4.954a1.648,1.648,0,0,1,.362.634,3.489,3.489,0,0,0-.435,1.693,3.459,3.459,0,0,0,3.44,3.478,3.459,3.459,0,0,0,3.439-3.478,3.5,3.5,0,0,0-.317-1.461,1.734,1.734,0,0,1,.434-.629c2.584-2.523,4.9-4.8,7.09-6.965a1.514,1.514,0,0,1,1.1-.486,1.884,1.884,0,0,1,.5.073,3.162,3.162,0,0,0,.83.112,2.991,2.991,0,0,0,2.2-.968,3.81,3.81,0,0,0,.963-2.615A2.973,2.973,0,0,0-4097.382,3498.711Zm-34.473,17.639h-.034a1.866,1.866,0,0,1-1.317-.586,1.9,1.9,0,0,1-.538-1.349,1.891,1.891,0,0,1,1.893-1.875h0a1.852,1.852,0,0,1,1.328.552,1.892,1.892,0,0,1,.543,1.344A1.9,1.9,0,0,1-4131.855,3516.35Zm34.4-13.407a1.844,1.844,0,0,1-1.322.562h-.016a1.83,1.83,0,0,1-1.311-.566,1.907,1.907,0,0,1-.534-1.366,1.852,1.852,0,0,1,1.861-1.841h.015a1.883,1.883,0,0,1,1.856,1.872A1.884,1.884,0,0,1-4097.453,3502.943Z" fill="#8f8f8f"/>
  </g>
</svg>
