<svg xmlns="http://www.w3.org/2000/svg" width="24.018" height="40" viewBox="0 0 24.018 40">
  <g id="Group_37" data-name="Group 37" transform="translate(4127.779 -3798.448)">
    <path id="Path_47" data-name="Path 47" d="M-4108.658,3798.448c.133.047.265.1.4.141a2.568,2.568,0,0,1,1.8,2.319c.043,1.04.019,2.083.024,3.124v.446a7.818,7.818,0,0,1,.831.33,3.34,3.34,0,0,1,1.843,3.159q0,10.467,0,20.934a3.335,3.335,0,0,1-3.553,3.54h-1.094c-.007.158-.018.3-.019.432,0,1.146,0,2.291,0,3.437a2.007,2.007,0,0,1-2.124,2.136q-5.213,0-10.429,0a2.008,2.008,0,0,1-2.123-2.136c0-1.133,0-2.266,0-3.4v-.471c-.42,0-.806,0-1.192,0a3.312,3.312,0,0,1-3.47-3.424q-.021-10.584,0-21.168a3.311,3.311,0,0,1,2.452-3.284l.217-.069c0-1.028,0-2.054,0-3.081a3.931,3.931,0,0,1,.069-.892,2.617,2.617,0,0,1,1.861-1.974c.1-.032.192-.067.288-.1Zm-16.442,7.425a5.871,5.871,0,0,0-.591.368,2.112,2.112,0,0,0-.751,1.763q.009,10.43,0,20.858a2.019,2.019,0,0,0,2.242,2.247q8.419,0,16.839,0a2.026,2.026,0,0,0,2.258-2.271q0-10.391,0-20.781a4.154,4.154,0,0,0-.046-.661,1.746,1.746,0,0,0-1.29-1.415v.426q0,2.559,0,5.117a2.01,2.01,0,0,1-2.235,2.25h-14.181a2.01,2.01,0,0,1-2.248-2.236q0-2.578,0-5.156Zm9.332,6.569h7.067c.736,0,.928-.188.929-.917q0-2.85,0-5.7c0-1.523,0-3.045,0-4.568a1.34,1.34,0,0,0-1.473-1.479,2.772,2.772,0,0,0-.584.009,1.08,1.08,0,0,0-.528.237c-.516.513-1,1.059-1.5,1.584a2.617,2.617,0,0,1-1.953.833h-3.9a2.629,2.629,0,0,1-1.953-.833,13.719,13.719,0,0,1-1.141-1.23,1.521,1.521,0,0,0-1.439-.612,1.378,1.378,0,0,0-1.51,1.531q0,5.133,0,10.266c0,.68.2.877.889.878Q-4119.322,3812.444-4115.768,3812.442Zm-5.985,20.021c-.008.133-.021.247-.021.361q0,1.7,0,3.4c0,.67.224.9.885.9q2.383,0,4.763,0c.112,0,.224-.014.334-.022v-4.63Zm10.012,0v4.653h1.084c.666,0,.894-.226.9-.888q0-1.7,0-3.4c0-.124-.013-.248-.019-.369Zm-.262-32.574-.074-.075h-7.453a6.528,6.528,0,0,0,.854.887,1.94,1.94,0,0,0,.976.391c1.286.044,2.574.03,3.862.008a1.39,1.39,0,0,0,.763-.227A12.573,12.573,0,0,0-4112,3799.889Zm-1.137,37.206v-4.628h-1.277v4.628Z" fill="#8f8f8f"/>
    <path id="Path_48" data-name="Path 48" d="M-4122.442,3815.108c.429,0,.858-.01,1.286,0a1.345,1.345,0,0,1,1.391,1.411c.008.4.01.806,0,1.208a1.319,1.319,0,0,1-1.338,1.378c-.883.025-1.768.024-2.651,0a1.3,1.3,0,0,1-1.343-1.365c-.013-.415-.012-.832,0-1.247a1.328,1.328,0,0,1,1.408-1.387C-4123.274,3815.1-4122.858,3815.108-4122.442,3815.108Zm1.324,1.38h-2.61v1.261h2.61Z" fill="#8f8f8f"/>
    <path id="Path_49" data-name="Path 49" d="M-4109.1,3819.115c-.429,0-.858.012-1.286,0a1.336,1.336,0,0,1-1.383-1.416c-.006-.4-.009-.8,0-1.208a1.327,1.327,0,0,1,1.345-1.374q1.324-.034,2.65,0a1.306,1.306,0,0,1,1.335,1.337c.017.441.017.884,0,1.325a1.305,1.305,0,0,1-1.337,1.334C-4108.219,3819.13-4108.661,3819.114-4109.1,3819.115Zm-1.307-2.649v1.29h2.606v-1.29Z" fill="#8f8f8f"/>
    <path id="Path_50" data-name="Path 50" d="M-4115.789,3819.116c-.415,0-.831.01-1.247,0a1.327,1.327,0,0,1-1.394-1.436c0-.39,0-.779,0-1.169a1.313,1.313,0,0,1,1.317-1.393q1.344-.039,2.69,0a1.308,1.308,0,0,1,1.316,1.355q.01.643,0,1.286a1.3,1.3,0,0,1-1.279,1.349c-.466.027-.935.005-1.4.005Zm-1.291-1.368h2.624v-1.282h-2.624Z" fill="#8f8f8f"/>
    <path id="Path_51" data-name="Path 51" d="M-4122.453,3829.778c-.429,0-.858.006-1.286,0a1.3,1.3,0,0,1-1.351-1.274,13.361,13.361,0,0,1,0-1.48,1.279,1.279,0,0,1,1.3-1.234c.883-.012,1.767-.01,2.65,0a1.316,1.316,0,0,1,1.363,1.309c.02.453.02.909,0,1.363a1.324,1.324,0,0,1-1.36,1.316C-4121.569,3829.784-4122.011,3829.778-4122.453,3829.778Zm1.337-1.346v-1.294h-2.621v1.294Z" fill="#8f8f8f"/>
    <path id="Path_52" data-name="Path 52" d="M-4115.757,3825.786c.429,0,.858-.006,1.287,0a1.31,1.31,0,0,1,1.362,1.343c.008.454.012.909,0,1.364a1.3,1.3,0,0,1-1.267,1.278q-1.383.027-2.768,0a1.294,1.294,0,0,1-1.28-1.264c-.016-.48-.015-.962,0-1.442a1.3,1.3,0,0,1,1.3-1.279C-4116.666,3825.777-4116.211,3825.786-4115.757,3825.786Zm-1.325,2.634h2.613v-1.282h-2.613Z" fill="#8f8f8f"/>
    <path id="Path_53" data-name="Path 53" d="M-4115.772,3820.456c.454,0,.91-.014,1.364,0a1.3,1.3,0,0,1,1.3,1.322q.013.663,0,1.325a1.308,1.308,0,0,1-1.293,1.339c-.908.026-1.819.024-2.728,0a1.306,1.306,0,0,1-1.3-1.331c-.009-.454-.011-.909,0-1.364a1.285,1.285,0,0,1,1.252-1.288c.466-.021.935,0,1.4,0Zm-1.308,2.636h2.623v-1.283h-2.623Z" fill="#8f8f8f"/>
    <path id="Path_54" data-name="Path 54" d="M-4109.113,3829.777c-.429,0-.858.006-1.286,0a1.329,1.329,0,0,1-1.371-1.346c-.014-.441-.016-.884,0-1.325a1.317,1.317,0,0,1,1.354-1.318c.883-.009,1.767-.011,2.65,0a1.284,1.284,0,0,1,1.318,1.263,13.728,13.728,0,0,1,0,1.48,1.288,1.288,0,0,1-1.3,1.243C-4108.2,3829.787-4108.658,3829.777-4109.113,3829.777Zm1.319-2.634h-2.615v1.285h2.615Z" fill="#8f8f8f"/>
    <path id="Path_55" data-name="Path 55" d="M-4109.089,3820.455c.441,0,.884-.012,1.325,0a1.288,1.288,0,0,1,1.321,1.3c.02.467.021.936,0,1.4a1.3,1.3,0,0,1-1.305,1.285c-.9.023-1.793.021-2.689,0a1.326,1.326,0,0,1-1.331-1.349c-.014-.441-.016-.884,0-1.325a1.309,1.309,0,0,1,1.315-1.314C-4110,3820.443-4109.544,3820.456-4109.089,3820.455Zm-1.335,2.618h2.628v-1.256h-2.628Z" fill="#8f8f8f"/>
    <path id="Path_56" data-name="Path 56" d="M-4122.44,3820.456c.454,0,.91-.013,1.364,0a1.3,1.3,0,0,1,1.306,1.283c.023.466.022.936,0,1.4a1.321,1.321,0,0,1-1.335,1.3q-1.324.029-2.651,0a1.309,1.309,0,0,1-1.339-1.332q-.025-.663,0-1.325a1.3,1.3,0,0,1,1.369-1.336c.429-.01.858,0,1.287,0Zm-1.3,2.638h2.628v-1.281h-2.628Z" fill="#8f8f8f"/>
  </g>
</svg>
