<svg xmlns="http://www.w3.org/2000/svg" width="40.406" height="40.482" viewBox="0 0 40.406 40.482">
  <path id="Path_57" data-name="Path 57" d="M-4115.165,3683.09a1.568,1.568,0,0,1-.672-.133q-5.316-2.522-10.624-5.083-4.281-2.055-8.567-4.1a1.364,1.364,0,0,1-.907-1.441q.03-9.8-.038-19.6a1.119,1.119,0,0,1,.792-1.182q9.393-4.315,18.749-8.711a2.134,2.134,0,0,1,.915-.233,1.97,1.97,0,0,1,.87.219q9.1,4.352,18.232,8.627a1.259,1.259,0,0,1,.848,1.363c-.031,2.268-.028,4.536-.024,6.805l0,5.417c0,2.446-.008,4.858.015,7.271a1.268,1.268,0,0,1-.794,1.327q-4.1,2.1-8.192,4.212-4.962,2.559-9.931,5.1A1.5,1.5,0,0,1-4115.165,3683.09Zm5.106-24.287c-1.346.66-2.589,1.269-3.849,1.834a1.191,1.191,0,0,0-.789,1.316c.024,1.955.022,3.914.02,5.875V3681.1l.422-.184c.268-.115.425-.182.575-.26l4.541-2.3q5.553-2.819,11.119-5.615a1.32,1.32,0,0,0,.872-1.37c-.022-3.932-.018-7.86-.014-11.792l0-6.777-1.673.777c-1.067.5-2.075.967-3.1,1.389a1.355,1.355,0,0,0-.987,1.5c.054,2.523.032,5.05,0,7.573,0,.3-.133.792-.365.916-1.224.667-2.471,1.291-3.782,1.949l-1.354.679V3658Zm-24.266-5.239,0,5.012q0,6.582-.024,13.164c0,.629.354.795.766.987l13.926,6.7c.589.284,2.621,1.241,3.317,1.57l.042-.233a1.455,1.455,0,0,0,.038-.274l0-3.183c0-5.2,0-10.4-.034-15.6a1.4,1.4,0,0,0-.724-.989q-6.58-2.961-13.194-5.869l-3.012-1.331c-.179-.08-.363-.147-.553-.217l-.457-.17Zm1.966-1.125q8.133,3.525,16.279,7.044a1.549,1.549,0,0,0,.563.144l.229-.05c1.319-.65,2.668-1.337,4.019-2.024l1.58-.8v0a1.006,1.006,0,0,0-.154-.264q-7.927-3.519-15.854-7.022a1.306,1.306,0,0,0-.518-.117.582.582,0,0,0-.243.045c-1.43.606-2.85,1.233-4.326,1.882l-2.017.891S-4132.413,3652.413-4132.359,3652.439Zm11.818-5.643a2.335,2.335,0,0,0,.294.176s11.554,5.228,16.052,7.258a1.343,1.343,0,0,0,.461.144c1.328-.6,2.539-1.2,3.8-1.826l.926-.46-.207-.16a.751.751,0,0,0-.18-.129q-7.912-3.656-15.817-7.283a1.335,1.335,0,0,0-.532-.115.769.769,0,0,0-.306.055c-1.189.526-2.368,1.082-3.6,1.661l-1.132.531Z" transform="translate(4135.973 -3642.608)" fill="#8f8f8f"/>
</svg>
